<?xml version="1.0" standalone="no"?>
<!DOCTYPE svg PUBLIC "-//W3C//DTD SVG 20010904//EN"
 "http://www.w3.org/TR/2001/REC-SVG-20010904/DTD/svg10.dtd">
<svg version="1.0" xmlns="http://www.w3.org/2000/svg"
 width="796.000000pt" height="796.000000pt" viewBox="0 0 796.000000 796.000000"
 preserveAspectRatio="xMidYMid meet">
<metadata>
Created by potrace 1.14, written by Peter Selinger 2001-2017
</metadata>
<g transform="translate(0.000000,796.000000) scale(0.100000,-0.100000)"
fill="#000000" stroke="none">
<path d="M805 4909 c-27 -5 -68 -14 -90 -20 -22 -5 -47 -11 -55 -13 -37 -7
-155 -62 -214 -100 -239 -153 -396 -397 -430 -672 -9 -66 -9 -198 -2 -261 16
-124 74 -273 155 -391 43 -64 165 -193 215 -227 15 -11 33 -25 40 -31 26 -25
207 -106 281 -126 65 -17 109 -22 230 -22 158 -1 251 16 367 66 l48 20 0 149
0 148 -97 -50 c-113 -58 -209 -81 -323 -78 -78 2 -183 24 -254 55 -94 40 -238
153 -270 212 -5 9 -13 19 -17 22 -11 8 -78 134 -82 155 -2 11 -6 27 -9 35 -21
57 -29 113 -29 194 0 273 140 497 386 617 105 51 184 67 315 63 230 -6 429
-123 549 -323 44 -72 81 -165 81 -203 l0 -23 -198 -2 c-108 -1 -272 -2 -364
-2 l-168 -1 0 -104 c0 -87 3 -105 16 -110 9 -4 233 -7 498 -7 530 0 504 -3
500 63 -7 116 -28 265 -45 313 -33 93 -65 160 -102 220 -47 73 -54 82 -143
170 -102 100 -101 100 -193 152 -75 43 -224 97 -298 109 -72 11 -248 13 -298
3z"/>
<path d="M2151 3980 l1 -810 39 0 c36 0 39 2 40 28 0 36 0 1541 0 1570 -1 19
-6 22 -41 22 l-39 0 0 -810z"/>
<path d="M3613 4709 c-60 -11 -96 -33 -134 -81 -32 -39 -34 -47 -34 -118 0
-70 2 -79 32 -117 65 -82 179 -106 279 -59 28 13 60 37 71 52 113 161 -17 357
-214 323z m93 -109 c63 -39 68 -121 10 -174 -87 -79 -224 41 -160 140 36 53
96 67 150 34z"/>
<path d="M4158 4708 c-46 -9 -91 -37 -119 -72 -23 -29 -48 -101 -44 -126 2 -8
5 -30 8 -49 7 -43 53 -100 103 -128 68 -38 180 -28 239 22 l30 25 -33 30 c-38
35 -42 36 -68 12 -28 -27 -97 -22 -129 8 -56 52 -48 143 16 175 45 24 109 15
131 -18 7 -11 78 37 78 52 0 13 -34 39 -72 55 -46 20 -93 24 -140 14z"/>
<path d="M5831 4708 c-100 -18 -164 -92 -165 -193 -1 -122 84 -205 209 -205
147 0 241 116 211 259 -9 39 -58 94 -107 118 -52 27 -88 32 -148 21z m120
-127 c86 -90 -31 -228 -138 -162 -42 27 -62 86 -43 132 31 73 124 89 181 30z"/>
<path d="M2694 4698 c-6 -10 -7 -366 -1 -375 3 -5 72 -8 154 -8 l148 0 3 43
c3 35 0 42 -15 43 -10 0 -54 1 -98 1 -84 0 -98 9 -87 50 4 15 16 18 83 18 73
0 80 2 88 23 17 45 -4 66 -63 62 -22 -2 -47 2 -55 8 -12 9 -13 9 -7 -1 5 -8 1
-11 -15 -9 -23 4 -40 32 -32 54 3 8 30 12 76 12 127 0 117 -4 117 41 0 22 -3
41 -7 41 -32 5 -286 3 -289 -3z"/>
<path d="M3069 4699 c-9 -5 -12 -54 -11 -189 1 -100 4 -186 7 -190 2 -4 26 -6
52 -5 l48 1 3 51 c2 35 9 56 23 68 10 10 20 16 22 14 2 -2 15 -19 30 -37 15
-19 25 -38 21 -43 -3 -5 -1 -8 4 -7 5 2 18 -8 29 -21 17 -20 30 -25 77 -26 66
-2 71 8 26 63 -16 20 -50 63 -75 95 l-45 57 42 47 c24 26 55 59 69 73 47 47
44 56 -20 56 -49 -1 -59 -5 -83 -31 -69 -78 -109 -117 -115 -112 -3 4 -5 36
-4 72 1 36 -2 65 -6 66 -44 5 -84 5 -94 -2z"/>
<path d="M4541 4696 c-5 -6 -19 -33 -31 -61 -54 -121 -73 -164 -102 -227 -17
-37 -28 -73 -25 -80 4 -12 30 -14 92 -9 6 1 17 17 24 36 l12 35 84 0 83 0 12
-35 c6 -19 16 -35 21 -36 5 0 25 -1 44 -1 19 0 41 1 49 1 11 1 -8 53 -65 183
-44 101 -84 187 -89 192 -14 14 -98 15 -109 2z m91 -203 c2 -14 -4 -18 -28
-20 -52 -2 -57 7 -32 67 l22 53 17 -41 c10 -23 19 -50 21 -59z"/>
<path d="M4863 4703 c-10 -4 -13 -52 -13 -196 l0 -192 52 1 53 1 3 51 c3 50 4
52 31 52 22 0 35 -9 57 -42 16 -24 36 -47 44 -52 17 -11 110 -15 110 -5 0 4
-16 31 -36 60 l-37 53 24 20 c89 77 49 221 -66 242 -46 8 -204 13 -222 7z
m214 -110 c25 -33 2 -81 -39 -84 -71 -6 -75 -3 -76 47 -1 26 1 50 3 55 9 14
99 0 112 -18z"/>
<path d="M5265 4701 c-4 -8 -7 -114 -6 -271 l1 -115 120 1 c66 1 136 5 155 8
40 8 79 40 89 74 10 30 -10 88 -37 107 -19 13 -19 16 -5 32 24 27 32 70 18
102 -20 49 -66 63 -207 66 -68 1 -125 -1 -128 -4z m222 -93 c13 -10 6 -38 -11
-50 -19 -13 -106 -9 -107 5 -4 49 -3 52 21 58 29 7 80 0 97 -13z m20 -154 c20
-28 -1 -54 -45 -55 -20 0 -44 -2 -53 -4 -9 -1 -21 0 -27 4 -15 9 -22 53 -11
67 13 17 122 7 136 -12z"/>
<path d="M6150 4651 c0 -31 -1 -116 -1 -189 -1 -73 1 -136 4 -139 4 -3 21 -5
39 -5 70 0 66 -4 66 75 0 39 1 83 1 97 l2 25 25 -30 c24 -27 53 -63 116 -138
22 -26 49 -34 104 -28 8 1 11 59 10 193 l-1 192 -50 0 -50 1 -5 -99 -5 -100
-75 90 c-96 115 -88 109 -137 110 l-43 1 0 -56z"/>
<path d="M884 4485 c-89 -20 -179 -71 -250 -142 -105 -104 -147 -214 -147
-383 0 -84 21 -164 61 -235 32 -56 113 -155 126 -155 3 0 24 -13 48 -29 75
-51 160 -74 278 -76 58 -2 110 0 115 3 6 4 19 8 30 9 28 5 137 57 165 79 63
51 100 87 100 98 0 6 -31 42 -69 80 l-69 69 -37 -36 c-90 -87 -230 -116 -340
-69 -120 51 -174 147 -178 317 0 28 28 104 51 135 68 93 135 125 257 124 101
0 144 -16 215 -80 42 -38 50 -38 86 6 12 14 34 39 49 55 44 51 46 57 16 91
-35 39 -131 98 -201 124 -73 27 -223 34 -306 15z"/>
<path d="M4368 4199 c-15 -4 -29 -5 -31 -3 -2 3 -10 -2 -17 -11 -7 -8 -18 -15
-24 -15 -15 0 -41 -31 -66 -78 -25 -46 -26 -130 -4 -175 20 -38 69 -85 104
-99 48 -20 143 -17 190 6 63 30 70 47 33 83 l-29 29 -42 -22 c-32 -17 -49 -20
-76 -14 -84 19 -112 124 -47 182 39 35 95 38 134 8 l26 -20 36 31 36 32 -33
28 c-45 37 -130 54 -190 38z"/>
<path d="M4750 4194 c-153 -47 -193 -248 -68 -345 46 -36 85 -47 154 -44 68 3
112 23 150 68 40 47 52 83 48 145 -7 132 -146 218 -284 176z m139 -115 c31
-30 33 -36 33 -84 0 -41 -1 -43 -29 -69 -54 -51 -133 -39 -173 26 -27 45 -8
118 39 143 46 25 96 19 130 -16z"/>
<path d="M5500 4200 c-7 -4 -19 -6 -25 -3 -18 6 -34 -14 -95 -121 -30 -53 -58
-96 -61 -96 -3 0 -11 10 -17 23 -37 70 -112 185 -125 190 -6 2 -28 4 -47 3
l-35 -1 -1 -192 -1 -193 52 0 52 0 -1 90 c-1 85 6 111 21 73 4 -10 11 -22 16
-28 5 -5 18 -28 30 -50 17 -31 29 -41 52 -43 28 -3 34 3 75 73 25 42 46 70 47
63 2 -7 4 -49 5 -93 l3 -80 49 0 49 0 -1 160 c0 88 -1 174 -1 191 -1 33 -19
48 -41 34z"/>
<path d="M5995 4200 c-11 -4 -49 -56 -84 -114 -35 -59 -67 -103 -71 -99 -18
20 -113 179 -113 191 0 14 2 14 -59 18 l-47 3 -3 -132 c-2 -73 -2 -160 0 -194
l3 -63 49 0 c57 0 53 -10 50 125 -1 79 -5 82 72 -47 18 -30 29 -38 53 -38 25
0 33 7 49 40 11 22 23 40 28 40 4 0 7 3 6 8 -3 9 25 52 33 52 4 0 6 -8 6 -17
0 -10 1 -51 2 -90 l1 -73 50 0 50 0 -2 190 c-2 117 -7 190 -13 191 -5 1 -17 4
-25 9 -8 4 -24 4 -35 0z"/>
<path d="M6288 4199 c-16 -4 -28 -5 -28 -2 0 2 -13 -5 -29 -16 -16 -12 -34
-21 -41 -21 -6 0 -8 -5 -5 -10 3 -6 -1 -13 -9 -16 -9 -3 -16 -12 -16 -20 0 -8
-4 -14 -9 -14 -12 0 -26 -75 -23 -119 5 -64 61 -139 121 -163 38 -15 124 -18
166 -6 135 42 185 218 91 325 -45 52 -149 81 -218 62z m95 -101 c31 -16 42
-29 54 -64 18 -53 -20 -130 -67 -135 -8 -1 -25 -3 -37 -4 -33 -3 -82 31 -98
69 -38 90 62 180 148 134z"/>
<path d="M2834 4143 c-14 -32 -32 -73 -40 -90 -25 -58 -42 -98 -74 -167 -16
-37 -30 -70 -30 -72 0 -2 25 -4 55 -4 53 0 55 1 69 35 8 19 19 36 23 36 39 6
131 4 144 -2 9 -5 22 -22 29 -39 12 -29 15 -30 72 -30 32 0 57 3 55 8 -13 24
-77 164 -77 169 0 3 -16 39 -35 80 -19 41 -35 80 -35 87 0 24 -35 43 -83 45
l-47 3 -26 -59z m122 -171 c-3 -3 -65 -5 -83 -3 -8 1 -8 8 2 29 8 15 19 41 25
57 l12 30 23 -55 c13 -30 22 -56 21 -58z"/>
<path d="M3170 4006 l0 -196 54 0 54 0 -2 90 c-2 102 5 110 50 54 16 -20 34
-41 39 -48 6 -6 25 -30 43 -53 31 -40 37 -43 81 -43 l47 0 0 194 -1 194 -52
-1 -53 0 -1 -36 c0 -20 0 -65 -1 -100 l0 -64 -29 31 c-16 17 -29 33 -29 36 0
2 -15 22 -34 43 -19 21 -43 49 -53 62 -14 17 -32 25 -66 28 l-47 5 0 -196z"/>
<path d="M3610 4003 l0 -195 133 4 c142 4 179 15 224 66 64 72 55 205 -19 267
-50 42 -74 48 -210 50 l-127 3 -1 -195z m236 91 c62 -30 70 -134 13 -175 -22
-15 -41 -19 -81 -17 l-53 3 -2 90 c-1 50 0 96 2 103 6 17 80 15 121 -4z"/>
<path d="M6610 4003 l0 -195 138 4 c125 3 140 5 173 28 20 13 47 39 59 58 44
63 36 184 -15 235 -50 49 -90 60 -227 63 l-128 2 0 -195z m235 91 c19 -9 38
-28 45 -45 16 -37 6 -97 -19 -123 -22 -21 -112 -38 -133 -25 -9 6 -13 39 -14
109 l-1 100 45 0 c24 0 59 -7 77 -16z"/>
<path d="M7070 4005 l0 -195 55 0 55 0 0 193 0 192 -55 2 -55 2 0 -194z"/>
<path d="M7220 4154 l0 -44 59 0 58 0 0 -147 -1 -148 55 0 54 0 0 145 1 145
58 3 c48 3 59 6 63 23 5 16 19 -2 65 -80 58 -96 60 -103 60 -171 l0 -70 57 0
56 0 -1 68 c-1 64 2 73 46 148 25 43 58 99 73 124 l26 46 -46 2 c-56 2 -64 -4
-109 -85 -20 -34 -37 -63 -39 -63 -2 0 -23 31 -45 69 -23 38 -47 71 -53 74 -7
2 -108 4 -224 4 l-213 0 0 -43z"/>
<path d="M2907 3542 c-20 -2 -35 -15 -53 -44 l-26 -41 -27 41 c-23 37 -30 42
-63 42 -21 0 -38 -2 -38 -4 0 -3 18 -32 40 -65 22 -33 40 -64 40 -68 0 -11
-72 -127 -82 -131 -22 -9 -4 -22 31 -22 34 0 41 4 67 45 15 25 30 45 33 45 4
0 18 -21 33 -45 24 -40 31 -45 63 -45 19 0 35 3 35 8 0 4 -20 38 -44 76 l-44
69 25 41 c14 23 34 53 44 67 21 30 13 37 -34 31z"/>
<path d="M3433 3531 c-78 -36 -107 -150 -56 -220 41 -55 132 -77 192 -47 45
24 54 40 32 60 -18 16 -22 16 -50 2 -43 -23 -78 -20 -106 9 -52 51 -24 136 49
149 29 5 65 -8 78 -28 5 -7 14 -3 28 11 26 28 26 28 -10 53 -42 30 -106 35
-157 11z"/>
<path d="M4238 3542 c-27 -3 -28 -5 -28 -63 l0 -60 -57 3 -58 3 1 58 1 57 -33
0 -34 0 0 -145 0 -145 30 0 c17 0 31 6 31 13 1 6 3 28 4 47 2 19 3 40 4 47 1
7 20 11 56 10 l55 -2 0 -58 0 -58 33 3 32 3 0 138 c0 76 -2 142 -5 145 -3 4
-17 6 -32 4z"/>
<path d="M6127 3524 c-77 -52 -92 -144 -36 -222 36 -50 128 -68 194 -36 39 18
42 24 41 84 -1 43 -2 45 -33 48 -31 3 -32 2 -35 -40 -3 -42 -4 -43 -43 -46
-45 -3 -84 23 -86 58 -1 11 -2 26 -3 33 -4 23 25 68 50 77 29 12 69 6 90 -11
12 -10 18 -8 29 7 8 10 15 24 15 29 0 19 -44 38 -96 41 -41 2 -58 -2 -87 -22z"/>
<path d="M4790 3538 c0 -2 -27 -66 -60 -142 -33 -77 -60 -141 -60 -143 0 -2
15 -3 33 -3 28 0 36 5 49 33 16 32 18 34 70 31 29 -1 56 -2 59 -3 4 -1 12 -14
19 -31 10 -25 18 -30 46 -30 19 0 34 2 34 5 0 2 -9 24 -19 47 -33 72 -53 121
-77 178 -20 51 -25 55 -58 58 -20 2 -36 2 -36 0z m39 -166 c-17 -2 -33 -1 -35
1 -3 3 3 21 13 42 l18 37 17 -38 17 -39 -30 -3z"/>
<path d="M5375 3398 l0 -143 33 -3 32 -3 0 92 0 93 68 -92 c60 -81 70 -91 99
-92 l31 0 4 78 c2 42 2 107 0 145 -3 67 -3 67 -32 67 -33 0 -32 5 -31 -108 1
-65 -1 -72 -14 -58 -8 8 -15 17 -15 20 0 2 -13 19 -28 35 -15 17 -39 49 -53
71 -21 34 -29 39 -60 40 l-35 0 1 -142z"/>
<path d="M6744 3398 l1 -143 106 -2 106 -1 1 29 1 29 -75 0 -74 0 0 30 0 30
66 0 65 0 -3 28 c-3 26 -5 27 -66 26 l-63 0 3 30 3 31 66 -2 c67 -1 67 -1 71
28 l5 29 -107 0 -107 0 1 -142z"/>
</g>
</svg>
