<svg width="159" height="38" viewBox="0 0 159 38" fill="none" xmlns="http://www.w3.org/2000/svg">
<g clip-path="url(#clip0_826_121326)">
<path d="M43.7832 3.10352V34.8971" stroke="#373435" stroke-width="2" stroke-miterlimit="10"/>
<path d="M84.0781 12.5161C84.7047 12.542 85.3286 12.4252 85.9017 12.1746C86.4751 11.9241 86.9821 11.5465 87.3831 11.0713L85.9941 9.83356C85.7806 10.1087 85.5055 10.3314 85.1902 10.4842C84.8749 10.6371 84.5278 10.7159 84.1763 10.7145C83.5926 10.7145 83.0325 10.4857 82.6194 10.0785C82.2063 9.6712 81.9745 9.11889 81.9745 8.54292C81.9745 7.967 82.2063 7.41468 82.6194 7.00742C83.0325 6.6002 83.5926 6.37142 84.1763 6.37142C84.5278 6.37001 84.8749 6.44881 85.1902 6.60165C85.5055 6.7545 85.7806 6.9772 85.9941 7.25237L87.3831 6.01463C86.9798 5.53918 86.4702 5.16222 85.8945 4.91309C85.3188 4.66401 84.6926 4.54954 84.0647 4.57866C81.6216 4.57866 79.8262 6.22161 79.8262 8.54292C79.8262 10.8642 81.6127 12.5072 84.0647 12.5072L84.0781 12.5161Z" fill="white"/>
<path d="M94.0066 12.3624H96.2754L92.8587 4.75977H90.7104L87.3071 12.3624H89.5403L90.1477 10.8868H93.4081L94.011 12.3624H94.0066ZM90.7774 9.27904L91.7689 6.84321L92.7426 9.30988L90.7774 9.27904Z" fill="white"/>
<path d="M101.675 12.3624H104.011L102.345 9.975C102.811 9.76894 103.204 9.43026 103.473 9.00251C103.741 8.57472 103.874 8.07738 103.855 7.5744C103.855 5.83452 102.515 4.75977 100.429 4.75977H96.9053V12.3624H99.0848V10.345H100.277L101.675 12.3624ZM101.653 7.5744C101.653 8.27035 101.206 8.68 100.313 8.68H99.1027V6.47761H100.313C101.188 6.45559 101.64 6.86523 101.64 7.5744H101.653Z" fill="white"/>
<path d="M110.97 8.39809C111.285 8.24961 111.55 8.01501 111.733 7.72218C111.918 7.42931 112.012 7.09063 112.006 6.7463C112.006 5.57464 111.014 4.75977 108.987 4.75977H105.043V12.3624H109.206C111.278 12.3624 112.377 11.5915 112.377 10.2789C112.386 9.85629 112.252 9.44264 111.998 9.10246C111.743 8.76228 111.382 8.51464 110.97 8.39809ZM108.701 6.31023C109.424 6.31023 109.8 6.5613 109.8 7.04142C109.8 7.52154 109.424 7.77702 108.701 7.77702H107.2V6.31023H108.701ZM109.031 10.8119H107.2V9.26583H109.031C109.777 9.26583 110.175 9.5169 110.175 10.0367C110.175 10.5564 109.777 10.8119 109.031 10.8119Z" fill="white"/>
<path d="M117.401 12.5165C119.871 12.5165 121.685 10.8427 121.685 8.55219C121.685 6.26171 119.871 4.58789 117.401 4.58789C114.931 4.58789 113.118 6.26171 113.118 8.55219C113.118 10.8427 114.936 12.5165 117.401 12.5165ZM117.401 10.7325C116.961 10.7572 116.522 10.6508 116.143 10.427C115.764 10.2032 115.462 9.87234 115.275 9.47728C115.089 9.08226 115.028 8.64116 115.099 8.21113C115.17 7.78109 115.37 7.38198 115.673 7.06536C115.976 6.74875 116.369 6.52926 116.801 6.4353C117.232 6.34135 117.682 6.37729 118.092 6.53842C118.503 6.69955 118.855 6.97846 119.103 7.33903C119.35 7.69965 119.483 8.12532 119.483 8.561C119.502 8.84096 119.462 9.12186 119.366 9.38592C119.27 9.65003 119.119 9.89163 118.923 10.0955C118.728 10.2995 118.492 10.4613 118.23 10.571C117.968 10.6806 117.686 10.7356 117.401 10.7325Z" fill="white"/>
<path d="M128.031 4.75977V8.81215L124.627 4.75977H122.832V12.3624H124.967V8.31001L128.375 12.3624H130.166V4.75977H128.031Z" fill="white"/>
<path d="M55.8603 10.7057V9.31818H59.286V7.70604H55.8603V6.42866H59.7505V4.76367H53.7031V12.3707H59.8934V10.7057H55.8603Z" fill="white"/>
<path d="M66.2844 12.3707H68.8168L65.4983 8.1333L68.6515 4.76367H66.2487L63.2652 7.92628V4.76367H61.1035V12.3707H63.2652V10.4678L64.0781 9.6089L66.2844 12.3707Z" fill="white"/>
<path d="M73.002 12.5204C75.4674 12.5204 77.2852 10.8465 77.2852 8.55607C77.2852 6.2656 75.4674 4.5918 73.002 4.5918C70.5366 4.5918 68.7144 6.26119 68.7144 8.55607C68.7144 10.851 70.5321 12.5204 73.002 12.5204ZM73.002 10.7585C72.5612 10.7832 72.123 10.6768 71.7438 10.4532C71.3651 10.2296 71.0632 9.89904 70.8765 9.50424C70.6902 9.10944 70.6286 8.66857 70.6987 8.23871C70.7693 7.80881 70.9689 7.40965 71.2722 7.0929C71.575 6.77611 71.9676 6.55631 72.3986 6.46183C72.8296 6.36739 73.2794 6.40267 73.6898 6.56314C74.1003 6.72356 74.4526 7.00177 74.701 7.36181C74.9493 7.72181 75.0824 8.14705 75.0833 8.5825C75.1007 8.86146 75.0592 9.14085 74.9623 9.40337C74.8649 9.6659 74.7144 9.90587 74.5187 10.1084C74.3236 10.3108 74.0882 10.4715 73.8274 10.5803C73.5661 10.6891 73.2852 10.7438 73.002 10.7408V10.7585Z" fill="white"/>
<path d="M60.3978 22.3473H62.6666L59.2454 14.7402H57.0972L53.6938 22.3473H55.927L56.5344 20.8673H59.7948L60.3978 22.3473ZM57.1731 19.2639L58.1646 16.8325L59.1561 19.2639H57.1731Z" fill="white"/>
<path d="M68.4864 14.7402V18.7926L65.083 14.7402H63.2876V22.3473H65.4225V18.2949L68.8258 22.3473H70.6212V14.7402H68.4864Z" fill="white"/>
<path d="M72.1621 22.3473H75.8111C78.3658 22.3473 80.1166 20.8805 80.1166 18.5415C80.1166 16.2026 78.3658 14.7402 75.8111 14.7402H72.1621V22.3473ZM74.3461 20.6294V16.458H75.7217C77.0348 16.458 77.9147 17.2289 77.9147 18.5415C77.9147 19.8542 77.0214 20.6294 75.7217 20.6294H74.3461Z" fill="white"/>
<path d="M88.3122 22.4977C88.9389 22.5267 89.5641 22.4126 90.139 22.1643C90.7138 21.916 91.2229 21.5402 91.6262 21.0662L90.2417 19.824C90.0277 20.0989 89.7526 20.3215 89.4373 20.4743C89.122 20.6271 88.7754 20.706 88.4239 20.705C87.8567 20.6798 87.3207 20.4398 86.9281 20.0349C86.536 19.63 86.3167 19.0914 86.3167 18.5312C86.3167 17.9711 86.536 17.4325 86.9281 17.0276C87.3207 16.6227 87.8567 16.3827 88.4239 16.3575C88.7749 16.3571 89.1215 16.4364 89.4369 16.5891C89.7522 16.7419 90.0273 16.964 90.2417 17.2384L91.6262 16.0007C91.2234 15.5259 90.7147 15.1496 90.1399 14.9012C89.5646 14.6529 88.9393 14.5392 88.3122 14.5692C85.8692 14.5692 84.0737 16.2077 84.0737 18.5334C84.0737 20.8592 85.8692 22.4977 88.3122 22.4977Z" fill="white"/>
<path d="M96.3159 22.4969C98.7857 22.4969 100.599 20.8231 100.599 18.5326C100.599 16.2422 98.7857 14.5684 96.3159 14.5684C93.846 14.5684 92.0327 16.2378 92.0327 18.5326C92.0327 20.8275 93.8505 22.4969 96.3159 22.4969ZM96.3159 20.735C95.8751 20.7597 95.4369 20.6534 95.0577 20.4298C94.679 20.2061 94.3771 19.8756 94.1904 19.4808C94.0041 19.086 93.9425 18.6451 94.0126 18.2152C94.0832 17.7854 94.2828 17.3862 94.5861 17.0695C94.8889 16.7527 95.2815 16.5328 95.7125 16.4384C96.1435 16.344 96.5932 16.3792 97.0037 16.5397C97.4141 16.7001 97.7665 16.9783 98.0148 17.3383C98.2632 17.6983 98.3963 18.1236 98.3972 18.5591C98.4137 18.8378 98.3721 19.117 98.2748 19.3792C98.1774 19.6415 98.0265 19.8812 97.8313 20.0835C97.6361 20.2859 97.4007 20.4465 97.1404 20.5556C96.8795 20.6646 96.599 20.7197 96.3159 20.7174V20.735Z" fill="white"/>
<path d="M110.72 22.3473L110.697 14.7402H108.902L106.258 19.1318L103.547 14.7402H101.751V22.3473H103.766V18.4226L105.74 21.594H106.709L108.692 18.3169L108.714 22.3473H110.72Z" fill="white"/>
<path d="M121.229 22.3473L121.207 14.7402H119.411L116.767 19.1318L114.056 14.7402H112.261V22.3473H114.275V18.4226L116.249 21.594H117.218L119.201 18.3169L119.224 22.3473H121.229Z" fill="white"/>
<path d="M126.655 22.4969C129.125 22.4969 130.943 20.8231 130.943 18.5326C130.943 16.2422 129.125 14.5684 126.655 14.5684C124.185 14.5684 122.372 16.2378 122.372 18.5326C122.372 20.8275 124.19 22.4969 126.655 22.4969ZM126.655 20.735C126.214 20.7597 125.776 20.6534 125.397 20.4298C125.018 20.2061 124.716 19.8756 124.53 19.4808C124.344 19.086 124.282 18.6451 124.352 18.2152C124.423 17.7854 124.622 17.3862 124.925 17.0695C125.228 16.7527 125.621 16.5328 126.052 16.4384C126.483 16.344 126.933 16.3792 127.343 16.5397C127.754 16.7001 128.106 16.9783 128.354 17.3383C128.603 17.6983 128.736 18.1236 128.737 18.5591C128.753 18.8378 128.712 19.117 128.614 19.3792C128.517 19.6415 128.366 19.8812 128.171 20.0835C127.975 20.2859 127.74 20.4465 127.48 20.5556C127.219 20.6646 126.938 20.7197 126.655 20.7174V20.735Z" fill="white"/>
<path d="M132.086 22.3473H135.735C138.29 22.3473 140.041 20.8805 140.041 18.5415C140.041 16.2026 138.29 14.7402 135.735 14.7402H132.086V22.3473ZM134.27 20.6294V16.458H135.646C136.959 16.458 137.852 17.2377 137.852 18.5592C137.852 19.8806 136.959 20.647 135.659 20.647L134.27 20.6294Z" fill="white"/>
<path d="M141.188 22.3473H143.368V14.7402H141.188V22.3473Z" fill="white"/>
<path d="M146.561 22.3473H148.741V16.4449H151.099V14.7402H144.194V16.4449H146.561V22.3473Z" fill="white"/>
<path d="M158.813 14.7402H156.696L154.869 17.7619L153.038 14.7402H150.738L153.677 19.5855V22.3473H155.861V19.6207L158.813 14.7402Z" fill="white"/>
<path d="M57.5799 27.6289H59.1341L57.3342 30.3775L59.286 33.3287H57.7139L56.4812 31.4522L55.2574 33.3287H53.7031L55.646 30.4083L53.8371 27.6289H55.3825L56.4812 29.3159L57.5799 27.6289Z" fill="#373435"/>
<path d="M69.9244 32.2148C70.2241 32.221 70.5216 32.1572 70.7913 32.0286C71.0615 31.9 71.2969 31.7102 71.4787 31.4748L72.305 32.3161C72.0312 32.6347 71.6949 32.8951 71.3161 33.0816C70.9374 33.2682 70.5242 33.3769 70.1013 33.4011C69.6788 33.4255 69.2554 33.3649 68.8574 33.223C68.459 33.0812 68.0946 32.8611 67.7851 32.576C67.2272 32.0124 66.915 31.256 66.915 30.4683C66.915 29.6807 67.2272 28.9243 67.7851 28.3606C68.0673 28.083 68.4032 27.8645 68.7735 27.7184C69.1433 27.5723 69.5394 27.5016 69.9378 27.5105C70.3903 27.503 70.8391 27.5952 71.2509 27.7804C71.6627 27.9655 72.0272 28.239 72.3184 28.5809L71.5189 29.4618C71.3425 29.228 71.1125 29.0383 70.8481 28.9082C70.5832 28.7782 70.2916 28.7113 69.9959 28.713C69.5359 28.7066 69.091 28.8754 68.7543 29.1843C68.581 29.345 68.4447 29.5408 68.3554 29.7582C68.2656 29.9757 68.225 30.2097 68.2362 30.4441C68.225 30.6785 68.2621 30.9127 68.346 31.1324C68.4296 31.352 68.5577 31.5525 68.723 31.7215C68.8766 31.8771 69.0606 32.0001 69.2643 32.0827C69.468 32.1653 69.6864 32.2057 69.9066 32.2016L69.9244 32.2148Z" fill="#373435"/>
<path d="M84.1051 27.6289H85.3914V33.3287H84.1051V31.0866H81.8049V33.3287H80.5142V27.6289H81.8049V30.0119H84.1051V27.6289Z" fill="#373435"/>
<path d="M98.1246 33.3287L97.5887 32.0953H95.1679L94.6275 33.3287H93.2563L95.753 27.6289H97.0036L99.5003 33.3287H98.1246ZM96.3828 29.3247L95.6548 30.9809H97.1018L96.3828 29.3247Z" fill="#373435"/>
<path d="M111.403 27.6289H112.694V33.3287H111.403L108.652 29.7564V33.3287H107.361V27.6289H108.567L111.403 31.2981V27.6289Z" fill="#373435"/>
<path d="M125.061 30.4258H126.361V32.4476C126.058 32.7675 125.688 33.0181 125.277 33.1817C124.866 33.3453 124.423 33.418 123.98 33.3946C123.585 33.4045 123.192 33.336 122.825 33.1929C122.457 33.0499 122.123 32.8354 121.841 32.5621C121.283 31.9985 120.971 31.2421 120.971 30.4544C120.971 29.6667 121.283 28.9104 121.841 28.3467C122.119 28.0706 122.45 27.853 122.815 27.7069C123.181 27.5607 123.572 27.4892 123.967 27.4966C124.766 27.4844 125.539 27.7744 126.128 28.3071L125.458 29.2585C125.246 29.0748 125.005 28.926 124.744 28.818C124.517 28.7322 124.276 28.6889 124.034 28.6903C123.804 28.6851 123.576 28.7261 123.363 28.811C123.151 28.8958 122.958 29.0226 122.797 29.1836C122.634 29.3529 122.508 29.5521 122.424 29.7699C122.341 29.9876 122.302 30.2195 122.31 30.4522C122.298 30.689 122.334 30.9257 122.417 31.1482C122.5 31.3707 122.627 31.5745 122.792 31.7472C122.94 31.9019 123.119 32.0249 123.317 32.1083C123.515 32.1916 123.729 32.2337 123.944 32.2317C124.333 32.2466 124.719 32.1583 125.061 31.9763V30.4126V30.4258Z" fill="#373435"/>
<path d="M138.871 27.6289V28.7609H135.994V29.937H138.58V31.0206H135.994V32.201H138.96V33.3287H134.704V27.6289H138.871Z" fill="#373435"/>
<path d="M15.8288 5.91368C13.807 6.40089 11.92 7.32461 10.304 8.6182C8.84537 9.7685 7.64916 11.2093 6.79338 12.8464C5.93759 14.4835 5.44152 16.2802 5.33745 18.1193C5.11512 21.2195 5.99753 24.2989 7.83228 26.8258C9.66703 29.3526 12.339 31.1682 15.3866 31.959C17.2598 32.4654 19.2232 32.5582 21.137 32.2309C23.0507 31.9034 24.8677 31.164 26.4585 30.065L26.932 29.7655V31.9106C26.932 33.003 26.932 34.0909 26.932 35.1833C26.9548 35.3271 26.9245 35.4743 26.8467 35.5979C26.7688 35.7216 26.6485 35.8136 26.5077 35.8572C24.6225 36.6756 22.6174 37.193 20.5675 37.3901C20.438 37.3901 20.2772 37.3196 20.1923 37.4958H17.3071C17.2491 37.3284 17.1017 37.3989 16.99 37.3857C12.6436 37.0073 8.58338 35.0889 5.56077 31.9855C0.951569 27.2592 -0.732228 21.5902 0.576396 15.1505C1.33111 11.5332 3.18136 8.22715 5.88248 5.66939C8.5836 3.11168 12.0083 1.42282 15.7037 0.826172C15.7043 0.87881 15.6939 0.931006 15.6732 0.979506C15.6524 1.02801 15.6218 1.07178 15.5831 1.10808C14.9891 1.70272 14.3951 2.30177 13.7966 2.86998C13.6492 3.01534 13.5197 3.10784 13.7341 3.31046C14.5112 4.14296 15.1454 5.04594 15.8288 5.91368Z" fill="white"/>
<path d="M15.8289 5.91384C15.1456 5.03288 14.4891 4.15193 13.7432 3.34585C13.5288 3.12562 13.6583 3.03312 13.8057 2.90538C14.4042 2.31514 14.9982 1.71609 15.5922 1.14347C15.6309 1.10717 15.6616 1.06341 15.6823 1.01491C15.703 0.966402 15.7134 0.914207 15.7128 0.861569C16.2264 0.641331 16.8115 0.79109 17.3162 0.548828H20.2014C20.255 0.680971 20.3756 0.645731 20.4739 0.650136C21.9551 0.745909 23.4159 1.04234 24.8151 1.53109C27.9823 2.56722 30.7992 4.44316 32.9572 6.95336C35.5469 9.88874 37.1125 13.5666 37.4235 17.4455C37.3902 17.875 37.4527 18.3065 37.6066 18.7097V19.5554C37.2509 19.5551 36.8973 19.5031 36.557 19.4012C33.0822 18.6788 29.603 17.9653 26.1327 17.1988C25.6057 17.0843 25.0027 17.1063 24.5739 16.6747C25.8513 16.5381 27.1287 16.6218 28.406 16.591C29.5092 16.5601 30.6124 16.5601 31.7155 16.591C32.0595 16.591 32.1309 16.5029 32.0639 16.1505C31.476 13.5351 30.1106 11.152 28.1423 9.30585C26.1741 7.45964 23.6923 6.23419 21.0143 5.7861C19.2908 5.54199 17.5379 5.5852 15.8289 5.91384Z" fill="url(#paint0_linear_826_121326)"/>
<path d="M24.5827 16.6611C25.0293 17.1016 25.6144 17.0707 26.1414 17.1853C29.6117 17.9385 33.091 18.6521 36.5657 19.3877C36.906 19.4896 37.2597 19.5415 37.6153 19.5418V20.1761C37.5349 21.0791 36.8918 20.9822 36.2442 20.9778C30.1313 20.9455 24.017 20.9279 17.9011 20.9249C17.517 20.9249 17.383 20.85 17.3964 20.4404C17.4277 19.3348 17.3964 18.238 17.3964 17.1192C17.3964 16.7932 17.4902 16.6787 17.8118 16.6787C19.04 16.6787 20.2682 16.6479 21.492 16.6787C22.5237 16.6831 23.5554 16.5466 24.5827 16.6611Z" fill="white"/>
<path d="M20.6302 13.041C18.6427 13.0189 16.9232 13.64 15.6325 15.1861C14.2345 16.8599 14.0648 18.8156 14.5739 20.8198C15.4672 24.3436 19.1608 25.9689 22.7562 24.5242C23.6744 24.1425 24.4851 23.5471 25.1189 22.7887C25.3332 22.542 25.4672 22.4716 25.7263 22.7535C26.4811 23.5683 27.2627 24.3612 28.0532 25.1496C28.2497 25.3435 28.2408 25.4492 28.0532 25.6474C23.3681 30.9331 15.0161 30.0125 11.4743 24.9162C10.1009 22.9242 9.49425 20.5139 9.76375 18.1196C10.1166 14.1554 12.2291 11.3627 15.8379 9.67572C16.4597 9.34281 17.1434 9.13754 17.8477 9.07227C18.0532 9.35858 18.2586 9.64488 18.4552 9.95322C19.1653 10.9839 19.9916 11.953 20.6302 13.041Z" fill="white"/>
<path d="M20.6302 13.0406C19.9915 11.9482 19.1652 10.9836 18.4551 9.93523C18.2586 9.64451 18.0531 9.35821 17.8477 9.05428C19.0718 8.75621 20.3431 8.69639 21.5904 8.87809C24.0151 9.15167 26.2657 10.2552 27.9504 11.9967C28.3211 12.3623 28.3702 12.6045 27.9817 12.9965C27.2447 13.7542 26.5569 14.5602 25.8557 15.3575C25.6905 15.5469 25.5967 15.6218 25.3868 15.3575C24.8058 14.6607 24.0813 14.0938 23.2612 13.6944C22.4411 13.2949 21.5443 13.072 20.6302 13.0406Z" fill="white"/>
</g>
<defs>
<linearGradient id="paint0_linear_826_121326" x1="19.8754" y1="-3.4639" x2="37.2262" y2="17.9152" gradientUnits="userSpaceOnUse">
<stop stop-color="white"/>
<stop offset="0.388033" stop-color="white"/>
<stop offset="1" stop-color="white"/>
</linearGradient>
<clipPath id="clip0_826_121326">
<rect width="159" height="37" fill="white" transform="translate(0 0.5)"/>
</clipPath>
</defs>
</svg>
